@startuml
class File {
  + extension: String
  + size: Integer
  + parent_folder: string
  + file_system_path: string
}
class FileSystemElement {
  + name: String
  + parent_folder_name: string
  + extension: string
  + size_in_bytes: integer
}
class Folder {
}
"1" Folder o-- "*" FileSystemElement
"1" File -- "1" File
@enduml